<svg xmlns="http://www.w3.org/2000/svg" class="landscape" viewBox="0 0 420 185" preserveAspectRatio="none" aria-hidden="true"><defs><linearGradient id="hill-a" x2="1" y2="1"><stop stop-color="#dbe5e3"/><stop offset="1" stop-color="#e5e3e9"/></linearGradient><linearGradient id="hill-b" x2=".7" y2="1"><stop stop-color="#ffedc6"/><stop offset="1" stop-color="#edcfc7"/></linearGradient><linearGradient id="hill-c" x2="1" y2="1"><stop stop-color="#e5e7eb"/><stop offset="1" stop-color="#cbd4dc"/></linearGradient><linearGradient id="sun-a" x2=".6" y2="1"><stop stop-color="#ffe8b9"/><stop offset="1" stop-color="#fff1d9"/></linearGradient></defs><circle cx="235" cy="45" r="13" fill="url(#sun-a)"/><path d="M16 151C61 137 70 71 118 77s64 55 115 15 81-53 120-22 43 7 68 1v114H16Z" fill="url(#hill-a)"/><path d="M0 160c60 1 58-46 105-35s41-35 78-11 45 28 91 18 85-3 146-24v77H0Z" fill="url(#hill-c)"/><g fill="#9baa8d" opacity=".88"><ellipse cx="310" cy="112" rx="9" ry="28" transform="rotate(20 310 112)"/><ellipse cx="334" cy="106" rx="7" ry="25" transform="rotate(-7 334 106)"/><ellipse cx="357" cy="112" rx="9" ry="33" transform="rotate(16 357 112)"/><ellipse cx="380" cy="106" rx="10" ry="29" transform="rotate(16 380 106)"/><ellipse cx="405" cy="117" rx="10" ry="30" transform="rotate(20 405 117)"/></g><g stroke="#788c70" opacity=".36"><path d="m298 140 20-52m16 45V88m12 49 19-51m9 49 14-48m8 57 21-50"/></g><path d="M0 185c92-16 153-5 211-36s93-52 134-30 58 13 75 33v33Z" fill="url(#hill-b)"/><path d="M38 185c63-9 96-15 137-11s77-17 100-17 48 12 70 28Z" fill="#faf3e6" opacity=".55"/><g fill="#8e9d8b"><ellipse cx="239" cy="179" rx="7" ry="13" transform="rotate(28 239 179)"/><ellipse cx="261" cy="177" rx="9" ry="22" transform="rotate(20 261 177)"/></g></svg>